<mxfile host="Electron" agent="Mozilla/5.0 (Windows NT 10.0; Win64; x64) AppleWebKit/537.36 (KHTML, like Gecko) draw.io/24.7.5 Chrome/126.0.6478.183 Electron/31.3.0 Safari/537.36" version="24.7.5">
  <diagram name="Page-1" id="FRW23cuBPhd2nGrvQhOB">
    <mxGraphModel dx="2648" dy="1758" grid="0" gridSize="10" guides="0" tooltips="0" connect="1" arrows="1" fold="1" page="0" pageScale="1" pageWidth="850" pageHeight="1100" math="0" shadow="0">
      <root>
        <mxCell id="0" />
        <mxCell id="1" parent="0" />
        <mxCell id="6gnXWZiP712-ZntQqO50-29" style="edgeStyle=orthogonalEdgeStyle;rounded=0;orthogonalLoop=1;jettySize=auto;html=1;exitX=0.3;exitY=0;exitDx=0;exitDy=0;exitPerimeter=0;entryX=0.34;entryY=0;entryDx=0;entryDy=0;entryPerimeter=0;" edge="1" parent="1" source="kFjChgy5pi1Nco4eD0_t-45" target="6gnXWZiP712-ZntQqO50-8">
          <mxGeometry relative="1" as="geometry">
            <Array as="points">
              <mxPoint x="923" y="75" />
              <mxPoint x="923" y="-253" />
              <mxPoint x="1592" y="-253" />
              <mxPoint x="1592" y="-165" />
            </Array>
          </mxGeometry>
        </mxCell>
        <mxCell id="6gnXWZiP712-ZntQqO50-69" value="GND" style="edgeLabel;html=1;align=center;verticalAlign=middle;resizable=0;points=[];" vertex="1" connectable="0" parent="6gnXWZiP712-ZntQqO50-29">
          <mxGeometry x="0.9158" y="-3" relative="1" as="geometry">
            <mxPoint as="offset" />
          </mxGeometry>
        </mxCell>
        <mxCell id="6gnXWZiP712-ZntQqO50-30" style="edgeStyle=orthogonalEdgeStyle;rounded=0;orthogonalLoop=1;jettySize=auto;html=1;exitX=0.63;exitY=0;exitDx=0;exitDy=0;exitPerimeter=0;entryX=0.34;entryY=0;entryDx=0;entryDy=0;entryPerimeter=0;" edge="1" parent="1" source="kFjChgy5pi1Nco4eD0_t-45" target="6gnXWZiP712-ZntQqO50-7">
          <mxGeometry relative="1" as="geometry">
            <Array as="points">
              <mxPoint x="959" y="-223" />
              <mxPoint x="1366" y="-223" />
            </Array>
          </mxGeometry>
        </mxCell>
        <mxCell id="6gnXWZiP712-ZntQqO50-67" value="GND" style="edgeLabel;html=1;align=center;verticalAlign=middle;resizable=0;points=[];" vertex="1" connectable="0" parent="6gnXWZiP712-ZntQqO50-30">
          <mxGeometry x="0.9257" y="-5" relative="1" as="geometry">
            <mxPoint x="5" as="offset" />
          </mxGeometry>
        </mxCell>
        <mxCell id="6gnXWZiP712-ZntQqO50-31" style="edgeStyle=orthogonalEdgeStyle;rounded=0;orthogonalLoop=1;jettySize=auto;html=1;exitX=0.75;exitY=0;exitDx=0;exitDy=0;exitPerimeter=0;entryX=0.34;entryY=0;entryDx=0;entryDy=0;entryPerimeter=0;" edge="1" parent="1" source="kFjChgy5pi1Nco4eD0_t-45" target="NwmCdjqyYi1wKT4zTaLU-4">
          <mxGeometry relative="1" as="geometry">
            <Array as="points">
              <mxPoint x="995" y="75" />
              <mxPoint x="995" y="-185" />
              <mxPoint x="1139" y="-185" />
            </Array>
          </mxGeometry>
        </mxCell>
        <mxCell id="6gnXWZiP712-ZntQqO50-66" value="GND" style="edgeLabel;html=1;align=center;verticalAlign=middle;resizable=0;points=[];" vertex="1" connectable="0" parent="6gnXWZiP712-ZntQqO50-31">
          <mxGeometry x="0.8932" y="-1" relative="1" as="geometry">
            <mxPoint x="-12" y="2" as="offset" />
          </mxGeometry>
        </mxCell>
        <mxCell id="6gnXWZiP712-ZntQqO50-27" style="edgeStyle=orthogonalEdgeStyle;rounded=0;orthogonalLoop=1;jettySize=auto;html=1;exitX=0.14;exitY=0;exitDx=0;exitDy=0;exitPerimeter=0;entryX=0.34;entryY=0;entryDx=0;entryDy=0;entryPerimeter=0;" edge="1" parent="1" source="kFjChgy5pi1Nco4eD0_t-45" target="6gnXWZiP712-ZntQqO50-9">
          <mxGeometry relative="1" as="geometry">
            <Array as="points">
              <mxPoint x="884" y="75" />
              <mxPoint x="884" y="-280" />
              <mxPoint x="1823" y="-280" />
              <mxPoint x="1823" y="-166" />
            </Array>
          </mxGeometry>
        </mxCell>
        <mxCell id="6gnXWZiP712-ZntQqO50-71" value="GND" style="edgeLabel;html=1;align=center;verticalAlign=middle;resizable=0;points=[];" vertex="1" connectable="0" parent="6gnXWZiP712-ZntQqO50-27">
          <mxGeometry x="0.9419" y="-3" relative="1" as="geometry">
            <mxPoint as="offset" />
          </mxGeometry>
        </mxCell>
        <mxCell id="NwmCdjqyYi1wKT4zTaLU-27" style="edgeStyle=orthogonalEdgeStyle;rounded=0;orthogonalLoop=1;jettySize=auto;html=1;exitX=0.5;exitY=1;exitDx=0;exitDy=0;entryX=0.5;entryY=0;entryDx=0;entryDy=0;" parent="1" source="NwmCdjqyYi1wKT4zTaLU-1" target="NwmCdjqyYi1wKT4zTaLU-2" edge="1">
          <mxGeometry relative="1" as="geometry" />
        </mxCell>
        <mxCell id="NwmCdjqyYi1wKT4zTaLU-1" value="VFD" style="rounded=0;whiteSpace=wrap;html=1;" parent="1" vertex="1">
          <mxGeometry x="1675" y="777" width="125" height="144" as="geometry" />
        </mxCell>
        <mxCell id="NwmCdjqyYi1wKT4zTaLU-2" value="SPINDLE" style="rounded=0;whiteSpace=wrap;html=1;fillColor=#FF33FF;" parent="1" vertex="1">
          <mxGeometry x="1836" y="1007" width="70" height="90" as="geometry" />
        </mxCell>
        <mxCell id="NwmCdjqyYi1wKT4zTaLU-12" style="edgeStyle=orthogonalEdgeStyle;rounded=0;orthogonalLoop=1;jettySize=auto;html=1;exitX=1;exitY=0.25;exitDx=0;exitDy=0;entryX=0;entryY=0.25;entryDx=0;entryDy=0;strokeColor=#754123;" parent="1" source="NwmCdjqyYi1wKT4zTaLU-3" target="kFjChgy5pi1Nco4eD0_t-3" edge="1">
          <mxGeometry relative="1" as="geometry" />
        </mxCell>
        <mxCell id="NwmCdjqyYi1wKT4zTaLU-13" style="edgeStyle=orthogonalEdgeStyle;rounded=0;orthogonalLoop=1;jettySize=auto;html=1;exitX=1;exitY=0.5;exitDx=0;exitDy=0;entryX=0;entryY=0.75;entryDx=0;entryDy=0;strokeColor=#3399FF;" parent="1" source="NwmCdjqyYi1wKT4zTaLU-3" target="kFjChgy5pi1Nco4eD0_t-3" edge="1">
          <mxGeometry relative="1" as="geometry" />
        </mxCell>
        <mxCell id="NwmCdjqyYi1wKT4zTaLU-14" style="edgeStyle=orthogonalEdgeStyle;rounded=0;orthogonalLoop=1;jettySize=auto;html=1;exitX=1;exitY=0.75;exitDx=0;exitDy=0;entryX=0;entryY=0.5;entryDx=0;entryDy=0;strokeColor=#FFFF66;" parent="1" source="NwmCdjqyYi1wKT4zTaLU-3" target="NwmCdjqyYi1wKT4zTaLU-11" edge="1">
          <mxGeometry relative="1" as="geometry">
            <Array as="points">
              <mxPoint x="-111" y="284" />
              <mxPoint x="-111" y="454" />
            </Array>
          </mxGeometry>
        </mxCell>
        <mxCell id="NwmCdjqyYi1wKT4zTaLU-3" value="MAINS SOCKET" style="rounded=0;whiteSpace=wrap;html=1;fillColor=#d80073;fontColor=#ffffff;strokeColor=#A50040;" parent="1" vertex="1">
          <mxGeometry x="-219" y="222" width="90" height="82" as="geometry" />
        </mxCell>
        <mxCell id="NwmCdjqyYi1wKT4zTaLU-23" style="edgeStyle=orthogonalEdgeStyle;rounded=0;orthogonalLoop=1;jettySize=auto;html=1;exitX=1;exitY=0.8;exitDx=0;exitDy=0;entryX=0;entryY=0.75;entryDx=0;entryDy=0;strokeColor=#FFFF66;exitPerimeter=0;" parent="1" source="NwmCdjqyYi1wKT4zTaLU-11" target="NwmCdjqyYi1wKT4zTaLU-1" edge="1">
          <mxGeometry relative="1" as="geometry">
            <Array as="points">
              <mxPoint x="330" y="512" />
              <mxPoint x="330" y="885" />
            </Array>
          </mxGeometry>
        </mxCell>
        <mxCell id="NwmCdjqyYi1wKT4zTaLU-35" style="edgeStyle=orthogonalEdgeStyle;rounded=0;orthogonalLoop=1;jettySize=auto;html=1;exitX=0.5;exitY=1;exitDx=0;exitDy=0;entryX=0.5;entryY=0;entryDx=0;entryDy=0;strokeColor=#FFFF66;exitPerimeter=0;" parent="1" source="NwmCdjqyYi1wKT4zTaLU-11" target="NwmCdjqyYi1wKT4zTaLU-34" edge="1">
          <mxGeometry relative="1" as="geometry" />
        </mxCell>
        <mxCell id="NwmCdjqyYi1wKT4zTaLU-24" style="edgeStyle=orthogonalEdgeStyle;rounded=0;orthogonalLoop=1;jettySize=auto;html=1;exitX=1;exitY=0.25;exitDx=0;exitDy=0;entryX=0;entryY=0.25;entryDx=0;entryDy=0;strokeColor=#754123;" parent="1" target="6gnXWZiP712-ZntQqO50-93" edge="1">
          <mxGeometry relative="1" as="geometry">
            <Array as="points">
              <mxPoint x="614" y="339" />
              <mxPoint x="614" y="778" />
            </Array>
            <mxPoint x="567" y="338" as="sourcePoint" />
          </mxGeometry>
        </mxCell>
        <mxCell id="NwmCdjqyYi1wKT4zTaLU-26" style="edgeStyle=orthogonalEdgeStyle;rounded=0;orthogonalLoop=1;jettySize=auto;html=1;exitX=1;exitY=0.5;exitDx=0;exitDy=0;entryX=0;entryY=0.75;entryDx=0;entryDy=0;strokeColor=#3399FF;" parent="1" target="6gnXWZiP712-ZntQqO50-93" edge="1">
          <mxGeometry relative="1" as="geometry">
            <Array as="points">
              <mxPoint x="593" y="354" />
              <mxPoint x="593" y="809" />
            </Array>
            <mxPoint x="567" y="353" as="sourcePoint" />
          </mxGeometry>
        </mxCell>
        <mxCell id="NwmCdjqyYi1wKT4zTaLU-30" style="edgeStyle=orthogonalEdgeStyle;rounded=0;orthogonalLoop=1;jettySize=auto;html=1;exitX=1;exitY=0.25;exitDx=0;exitDy=0;entryX=0;entryY=0.25;entryDx=0;entryDy=0;strokeColor=#754123;entryPerimeter=0;" parent="1" source="NwmCdjqyYi1wKT4zTaLU-29" target="NwmCdjqyYi1wKT4zTaLU-8" edge="1">
          <mxGeometry relative="1" as="geometry">
            <mxPoint x="527" y="213" as="sourcePoint" />
            <mxPoint x="566" y="106" as="targetPoint" />
            <Array as="points">
              <mxPoint x="589" y="164" />
              <mxPoint x="589" y="99" />
            </Array>
          </mxGeometry>
        </mxCell>
        <mxCell id="kFjChgy5pi1Nco4eD0_t-2" style="edgeStyle=orthogonalEdgeStyle;rounded=0;orthogonalLoop=1;jettySize=auto;html=1;exitX=1;exitY=0.5;exitDx=0;exitDy=0;entryX=0;entryY=0.5;entryDx=0;entryDy=0;strokeColor=#378FFF;entryPerimeter=0;" parent="1" source="NwmCdjqyYi1wKT4zTaLU-29" target="NwmCdjqyYi1wKT4zTaLU-8" edge="1">
          <mxGeometry relative="1" as="geometry">
            <Array as="points">
              <mxPoint x="608" y="179" />
              <mxPoint x="608" y="133" />
            </Array>
          </mxGeometry>
        </mxCell>
        <mxCell id="NwmCdjqyYi1wKT4zTaLU-34" value="CHASSIS" style="rounded=0;whiteSpace=wrap;html=1;" parent="1" vertex="1">
          <mxGeometry x="206" y="603" width="70" height="90" as="geometry" />
        </mxCell>
        <mxCell id="NwmCdjqyYi1wKT4zTaLU-60" value="CONTROLLER" style="rounded=0;whiteSpace=wrap;html=1;fillColor=#76608a;points=[[0,0,0,0,0],[0,1,0,0,0],[0.25,0,0,0,0],[0.25,1,0,0,0],[0.49,0.68,0,0,0],[0.5,0,0,0,0],[0.5,1,0,0,0],[0.75,0,0,0,0],[0.75,1,0,0,0],[1,0,0,0,0],[1,0.07,0,0,0],[1,0.14,0,0,0],[1,0.19,0,0,0],[1,0.24,0,0,0],[1,0.29,0,0,0],[1,0.34,0,0,0],[1,0.39,0,0,0],[1,0.45,0,0,0],[1,0.5,0,0,0],[1,0.55,0,0,0],[1,0.59,0,0,0],[1,0.81,0,0,0],[1,0.93,0,0,0],[1,1,0,0,0]];rotation=-90;fontColor=#ffffff;strokeColor=#432D57;" parent="1" vertex="1">
          <mxGeometry x="1366" y="-25" width="227" height="594.5" as="geometry" />
        </mxCell>
        <mxCell id="NwmCdjqyYi1wKT4zTaLU-20" style="edgeStyle=orthogonalEdgeStyle;rounded=0;orthogonalLoop=1;jettySize=auto;html=1;exitX=1;exitY=0.75;exitDx=0;exitDy=0;entryX=0;entryY=0.25;entryDx=0;entryDy=0;strokeColor=#754123;jumpStyle=arc;" parent="1" target="NwmCdjqyYi1wKT4zTaLU-19" edge="1" source="NwmCdjqyYi1wKT4zTaLU-9">
          <mxGeometry relative="1" as="geometry">
            <mxPoint x="253" y="184" as="sourcePoint" />
            <mxPoint x="417" y="327.5" as="targetPoint" />
            <Array as="points">
              <mxPoint x="383" y="115" />
              <mxPoint x="383" y="337" />
            </Array>
          </mxGeometry>
        </mxCell>
        <mxCell id="kFjChgy5pi1Nco4eD0_t-7" style="edgeStyle=orthogonalEdgeStyle;rounded=0;orthogonalLoop=1;jettySize=auto;html=1;exitX=1;exitY=0.25;exitDx=0;exitDy=0;entryX=0;entryY=0.5;entryDx=0;entryDy=0;strokeColor=#754123;" parent="1" source="kFjChgy5pi1Nco4eD0_t-4" target="NwmCdjqyYi1wKT4zTaLU-9" edge="1">
          <mxGeometry relative="1" as="geometry" />
        </mxCell>
        <mxCell id="kFjChgy5pi1Nco4eD0_t-8" style="edgeStyle=orthogonalEdgeStyle;rounded=0;orthogonalLoop=1;jettySize=auto;html=1;exitX=1;exitY=0.75;exitDx=0;exitDy=0;entryX=0;entryY=0.5;entryDx=0;entryDy=0;strokeColor=#3399ff;" parent="1" source="kFjChgy5pi1Nco4eD0_t-4" target="NwmCdjqyYi1wKT4zTaLU-10" edge="1">
          <mxGeometry relative="1" as="geometry" />
        </mxCell>
        <mxCell id="NwmCdjqyYi1wKT4zTaLU-21" style="edgeStyle=orthogonalEdgeStyle;rounded=0;orthogonalLoop=1;jettySize=auto;html=1;exitX=1;exitY=0.75;exitDx=0;exitDy=0;entryX=0;entryY=0.5;entryDx=0;entryDy=0;strokeColor=#3399FF;jumpStyle=arc;jumpSize=7;" parent="1" source="NwmCdjqyYi1wKT4zTaLU-10" target="NwmCdjqyYi1wKT4zTaLU-19" edge="1">
          <mxGeometry relative="1" as="geometry" />
        </mxCell>
        <mxCell id="NwmCdjqyYi1wKT4zTaLU-39" value="DIST&lt;div&gt;&amp;nbsp;48+&lt;/div&gt;" style="rounded=0;whiteSpace=wrap;html=1;points=[[0,0,0,0,0],[0,0.25,0,0,0],[0,0.5,0,0,0],[0,0.75,0,0,0],[0,1,0,0,0],[0.14,0,0,0,0],[0.25,1,0,0,0],[0.3,0,0,0,0],[0.47,0,0,0,0],[0.5,1,0,0,0],[0.63,0,0,0,0],[0.75,0,0,0,0],[0.75,1,0,0,0],[0.88,0,0,0,0],[1,0,0,0,0],[1,0.25,0,0,0],[1,0.5,0,0,0],[1,0.75,0,0,0],[1,1,0,0,0]];fillColor=#66FF66;fontColor=#000000;" parent="1" vertex="1">
          <mxGeometry x="841" y="-56" width="209" height="52" as="geometry" />
        </mxCell>
        <mxCell id="6gnXWZiP712-ZntQqO50-16" style="edgeStyle=orthogonalEdgeStyle;rounded=0;orthogonalLoop=1;jettySize=auto;html=1;exitX=1;exitY=0.5;exitDx=0;exitDy=0;exitPerimeter=0;" edge="1" parent="1" source="NwmCdjqyYi1wKT4zTaLU-40" target="NwmCdjqyYi1wKT4zTaLU-60">
          <mxGeometry relative="1" as="geometry">
            <Array as="points">
              <mxPoint x="1068" y="391" />
              <mxPoint x="1068" y="272" />
            </Array>
          </mxGeometry>
        </mxCell>
        <mxCell id="6gnXWZiP712-ZntQqO50-17" value="GND" style="edgeLabel;html=1;align=center;verticalAlign=middle;resizable=0;points=[];" vertex="1" connectable="0" parent="6gnXWZiP712-ZntQqO50-16">
          <mxGeometry x="0.8524" y="1" relative="1" as="geometry">
            <mxPoint x="-2" y="-8" as="offset" />
          </mxGeometry>
        </mxCell>
        <mxCell id="NwmCdjqyYi1wKT4zTaLU-40" value="DIST 24-" style="rounded=0;whiteSpace=wrap;html=1;points=[[0,0,0,0,0],[0,0.25,0,0,0],[0,0.5,0,0,0],[0,0.75,0,0,0],[0,1,0,0,0],[0.13,0,0,0,0],[0.25,1,0,0,0],[0.3,0,0,0,0],[0.5,0,0,0,0],[0.5,1,0,0,0],[0.68,0,0,0,0],[0.75,1,0,0,0],[0.87,0,0,0,0],[1,0,0,0,0],[1,0.25,0,0,0],[1,0.5,0,0,0],[1,0.75,0,0,0],[1,1,0,0,0]];fillColor=#66FF66;fontColor=#000000;" parent="1" vertex="1">
          <mxGeometry x="878.5" y="332" width="70" height="117" as="geometry" />
        </mxCell>
        <mxCell id="kFjChgy5pi1Nco4eD0_t-13" value="DIST 24+" style="rounded=0;whiteSpace=wrap;html=1;points=[[0,0,0,0,0],[0,0.25,0,0,0],[0,0.5,0,0,0],[0,0.75,0,0,0],[0,1,0,0,0],[0.13,0,0,0,0],[0.25,1,0,0,0],[0.3,0,0,0,0],[0.5,0,0,0,0],[0.5,1,0,0,0],[0.68,0,0,0,0],[0.75,1,0,0,0],[0.87,0,0,0,0],[1,0,0,0,0],[1,0.25,0,0,0],[1,0.5,0,0,0],[1,0.75,0,0,0],[1,1,0,0,0]];fillColor=#66FF66;fontColor=#000000;" parent="1" vertex="1">
          <mxGeometry x="877" y="206" width="73" height="109" as="geometry" />
        </mxCell>
        <mxCell id="kFjChgy5pi1Nco4eD0_t-15" value="" style="group" parent="1" vertex="1" connectable="0">
          <mxGeometry x="-83" y="224" width="234" height="77" as="geometry" />
        </mxCell>
        <mxCell id="kFjChgy5pi1Nco4eD0_t-3" value="POWER SWITCH" style="rounded=0;whiteSpace=wrap;html=1;" parent="kFjChgy5pi1Nco4eD0_t-15" vertex="1">
          <mxGeometry width="90" height="77" as="geometry" />
        </mxCell>
        <mxCell id="kFjChgy5pi1Nco4eD0_t-4" value="EMERGENCY SWITCH" style="rounded=0;whiteSpace=wrap;html=1;" parent="kFjChgy5pi1Nco4eD0_t-15" vertex="1">
          <mxGeometry x="144" width="90" height="77" as="geometry" />
        </mxCell>
        <mxCell id="kFjChgy5pi1Nco4eD0_t-5" style="edgeStyle=orthogonalEdgeStyle;rounded=0;orthogonalLoop=1;jettySize=auto;html=1;exitX=1;exitY=0.25;exitDx=0;exitDy=0;entryX=0;entryY=0.25;entryDx=0;entryDy=0;strokeColor=#754123;" parent="kFjChgy5pi1Nco4eD0_t-15" source="kFjChgy5pi1Nco4eD0_t-3" target="kFjChgy5pi1Nco4eD0_t-4" edge="1">
          <mxGeometry relative="1" as="geometry" />
        </mxCell>
        <mxCell id="kFjChgy5pi1Nco4eD0_t-6" style="edgeStyle=orthogonalEdgeStyle;rounded=0;orthogonalLoop=1;jettySize=auto;html=1;exitX=1;exitY=0.75;exitDx=0;exitDy=0;entryX=0;entryY=0.75;entryDx=0;entryDy=0;strokeColor=#3399ff;" parent="kFjChgy5pi1Nco4eD0_t-15" source="kFjChgy5pi1Nco4eD0_t-3" target="kFjChgy5pi1Nco4eD0_t-4" edge="1">
          <mxGeometry relative="1" as="geometry" />
        </mxCell>
        <mxCell id="kFjChgy5pi1Nco4eD0_t-1" style="edgeStyle=orthogonalEdgeStyle;rounded=0;orthogonalLoop=1;jettySize=auto;html=1;exitX=1;exitY=0.25;exitDx=0;exitDy=0;entryX=0;entryY=0.75;entryDx=0;entryDy=0;strokeColor=#3399ff;jumpStyle=arc;" parent="1" source="NwmCdjqyYi1wKT4zTaLU-10" target="NwmCdjqyYi1wKT4zTaLU-29" edge="1">
          <mxGeometry relative="1" as="geometry">
            <Array as="points">
              <mxPoint x="425" y="261" />
              <mxPoint x="425" y="194" />
            </Array>
          </mxGeometry>
        </mxCell>
        <mxCell id="NwmCdjqyYi1wKT4zTaLU-28" style="edgeStyle=orthogonalEdgeStyle;rounded=0;orthogonalLoop=1;jettySize=auto;html=1;exitX=1;exitY=0.25;exitDx=0;exitDy=0;strokeColor=#754123;entryX=0;entryY=0.25;entryDx=0;entryDy=0;jumpStyle=arc;" parent="1" source="NwmCdjqyYi1wKT4zTaLU-9" target="NwmCdjqyYi1wKT4zTaLU-29" edge="1">
          <mxGeometry relative="1" as="geometry">
            <mxPoint x="380" y="430" as="targetPoint" />
            <Array as="points">
              <mxPoint x="414" y="61" />
              <mxPoint x="414" y="164" />
            </Array>
          </mxGeometry>
        </mxCell>
        <mxCell id="kFjChgy5pi1Nco4eD0_t-23" value="DIST 5+" style="rounded=0;whiteSpace=wrap;html=1;points=[[0,0,0,0,0],[0,0.25,0,0,0],[0,0.5,0,0,0],[0,0.75,0,0,0],[0,1,0,0,0],[0.13,0,0,0,0],[0.25,1,0,0,0],[0.3,0,0,0,0],[0.5,0,0,0,0],[0.5,1,0,0,0],[0.68,0,0,0,0],[0.75,1,0,0,0],[0.87,0,0,0,0],[1,0,0,0,0],[1,0.25,0,0,0],[1,0.5,0,0,0],[1,0.75,0,0,0],[1,1,0,0,0]];fillColor=#66FF66;fontColor=#000000;" parent="1" vertex="1">
          <mxGeometry x="880" y="468" width="67" height="115" as="geometry" />
        </mxCell>
        <mxCell id="kFjChgy5pi1Nco4eD0_t-26" style="edgeStyle=orthogonalEdgeStyle;rounded=0;orthogonalLoop=1;jettySize=auto;html=1;exitX=1;exitY=0.15;exitDx=0;exitDy=0;exitPerimeter=0;strokeColor=#FF3333;entryX=0;entryY=0.5;entryDx=0;entryDy=0;entryPerimeter=0;" parent="1" source="NwmCdjqyYi1wKT4zTaLU-8" target="NwmCdjqyYi1wKT4zTaLU-39" edge="1">
          <mxGeometry relative="1" as="geometry" />
        </mxCell>
        <mxCell id="kFjChgy5pi1Nco4eD0_t-29" style="edgeStyle=orthogonalEdgeStyle;rounded=0;orthogonalLoop=1;jettySize=auto;html=1;exitX=1;exitY=0.21;exitDx=0;exitDy=0;entryX=0;entryY=0.5;entryDx=0;entryDy=0;entryPerimeter=0;strokeColor=#FF3333;exitPerimeter=0;" parent="1" source="NwmCdjqyYi1wKT4zTaLU-61" target="kFjChgy5pi1Nco4eD0_t-13" edge="1">
          <mxGeometry relative="1" as="geometry" />
        </mxCell>
        <mxCell id="kFjChgy5pi1Nco4eD0_t-32" value="" style="group" parent="1" vertex="1" connectable="0">
          <mxGeometry x="697" y="65" width="67" height="349" as="geometry" />
        </mxCell>
        <mxCell id="NwmCdjqyYi1wKT4zTaLU-61" value="24v PSU" style="rounded=0;whiteSpace=wrap;html=1;fillColor=#66FFFF;fontColor=#000000;points=[[0,0,0,0,0],[0,0.25,0,0,0],[0,0.5,0,0,0],[0,0.75,0,0,0],[0,1,0,0,0],[0.25,0,0,0,0],[0.25,1,0,0,0],[0.5,0,0,0,0],[0.5,1,0,0,0],[0.75,0,0,0,0],[0.75,1,0,0,0],[1,0,0,0,0],[1,0.21,0,0,0],[1,0.41,0,0,0],[1,0.62,0,0,0],[1,0.84,0,0,0],[1,1,0,0,0]];" parent="kFjChgy5pi1Nco4eD0_t-32" vertex="1">
          <mxGeometry y="161.64" width="66" height="96.52" as="geometry" />
        </mxCell>
        <mxCell id="NwmCdjqyYi1wKT4zTaLU-8" value="48V PSU" style="rounded=0;whiteSpace=wrap;html=1;fillColor=#66FFFF;fontColor=#000000;points=[[0,0,0,0,0],[0,0.25,0,0,0],[0,0.5,0,0,0],[0,0.75,0,0,0],[0,1,0,0,0],[0.25,0,0,0,0],[0.25,1,0,0,0],[0.5,0,0,0,0],[0.5,1,0,0,0],[0.75,0,0,0,0],[0.75,1,0,0,0],[1,0,0,0,0],[1,0.15,0,0,0],[1,0.29,0,0,0],[1,0.41,0,0,0],[1,0.56,0,0,0],[1,0.71,0,0,0],[1,0.85,0,0,0],[1,1,0,0,0]];" parent="kFjChgy5pi1Nco4eD0_t-32" vertex="1">
          <mxGeometry width="66" height="136" as="geometry" />
        </mxCell>
        <mxCell id="kFjChgy5pi1Nco4eD0_t-37" style="edgeStyle=orthogonalEdgeStyle;rounded=0;orthogonalLoop=1;jettySize=auto;html=1;exitX=1;exitY=0.62;exitDx=0;exitDy=0;exitPerimeter=0;entryX=0.005;entryY=0.595;entryDx=0;entryDy=0;entryPerimeter=0;" parent="1" source="NwmCdjqyYi1wKT4zTaLU-61" target="NwmCdjqyYi1wKT4zTaLU-40" edge="1">
          <mxGeometry relative="1" as="geometry">
            <Array as="points">
              <mxPoint x="845" y="287" />
              <mxPoint x="845" y="402" />
            </Array>
          </mxGeometry>
        </mxCell>
        <mxCell id="kFjChgy5pi1Nco4eD0_t-40" style="edgeStyle=orthogonalEdgeStyle;rounded=0;orthogonalLoop=1;jettySize=auto;html=1;exitX=1;exitY=0.5;exitDx=0;exitDy=0;entryX=0;entryY=0.25;entryDx=0;entryDy=0;strokeColor=#5e3621;" parent="1" source="NwmCdjqyYi1wKT4zTaLU-9" target="kFjChgy5pi1Nco4eD0_t-39" edge="1">
          <mxGeometry relative="1" as="geometry">
            <Array as="points">
              <mxPoint x="396" y="88" />
              <mxPoint x="396" y="248" />
              <mxPoint x="447" y="248" />
            </Array>
          </mxGeometry>
        </mxCell>
        <mxCell id="kFjChgy5pi1Nco4eD0_t-41" value="" style="group" parent="1" vertex="1" connectable="0">
          <mxGeometry x="447" y="149" width="121" height="233" as="geometry" />
        </mxCell>
        <mxCell id="NwmCdjqyYi1wKT4zTaLU-29" value="CIRCUIT BREAKER 10A" style="rounded=0;whiteSpace=wrap;html=1;fillColor=#6666FF;" parent="kFjChgy5pi1Nco4eD0_t-41" vertex="1">
          <mxGeometry x="1" width="120" height="60" as="geometry" />
        </mxCell>
        <mxCell id="NwmCdjqyYi1wKT4zTaLU-19" value="CIRCUIT BREAKER 16A" style="rounded=0;whiteSpace=wrap;html=1;fillColor=#6666FF;" parent="kFjChgy5pi1Nco4eD0_t-41" vertex="1">
          <mxGeometry y="173" width="120" height="60" as="geometry" />
        </mxCell>
        <mxCell id="kFjChgy5pi1Nco4eD0_t-39" value="CIRCUIT BREAKER 5A" style="rounded=0;whiteSpace=wrap;html=1;fillColor=#6666FF;" parent="kFjChgy5pi1Nco4eD0_t-41" vertex="1">
          <mxGeometry y="87" width="120" height="60" as="geometry" />
        </mxCell>
        <mxCell id="kFjChgy5pi1Nco4eD0_t-42" style="edgeStyle=orthogonalEdgeStyle;rounded=0;orthogonalLoop=1;jettySize=auto;html=1;exitX=1;exitY=0.5;exitDx=0;exitDy=0;entryX=0;entryY=0.75;entryDx=0;entryDy=0;strokeColor=#34b8fc;jumpStyle=arc;" parent="1" source="NwmCdjqyYi1wKT4zTaLU-10" target="kFjChgy5pi1Nco4eD0_t-39" edge="1">
          <mxGeometry relative="1" as="geometry" />
        </mxCell>
        <mxCell id="NwmCdjqyYi1wKT4zTaLU-33" style="edgeStyle=orthogonalEdgeStyle;rounded=0;orthogonalLoop=1;jettySize=auto;html=1;entryX=0;entryY=0.75;entryDx=0;entryDy=0;strokeColor=#FFFF66;flowAnimation=0;exitX=1;exitY=0.4;exitDx=0;exitDy=0;exitPerimeter=0;jumpStyle=arc;entryPerimeter=0;" parent="1" source="NwmCdjqyYi1wKT4zTaLU-11" target="NwmCdjqyYi1wKT4zTaLU-8" edge="1">
          <mxGeometry relative="1" as="geometry">
            <mxPoint x="350" y="347" as="sourcePoint" />
            <Array as="points">
              <mxPoint x="648" y="447" />
              <mxPoint x="648" y="164" />
              <mxPoint x="697" y="164" />
            </Array>
          </mxGeometry>
        </mxCell>
        <mxCell id="kFjChgy5pi1Nco4eD0_t-43" style="edgeStyle=orthogonalEdgeStyle;rounded=0;orthogonalLoop=1;jettySize=auto;html=1;exitX=1;exitY=0.25;exitDx=0;exitDy=0;entryX=0;entryY=0.25;entryDx=0;entryDy=0;entryPerimeter=0;strokeColor=#754123;" parent="1" source="kFjChgy5pi1Nco4eD0_t-39" target="NwmCdjqyYi1wKT4zTaLU-61" edge="1">
          <mxGeometry relative="1" as="geometry" />
        </mxCell>
        <mxCell id="kFjChgy5pi1Nco4eD0_t-44" style="edgeStyle=orthogonalEdgeStyle;rounded=0;orthogonalLoop=1;jettySize=auto;html=1;exitX=1;exitY=0.75;exitDx=0;exitDy=0;entryX=0;entryY=0.5;entryDx=0;entryDy=0;entryPerimeter=0;strokeColor=#3399FF;" parent="1" source="kFjChgy5pi1Nco4eD0_t-39" edge="1" target="NwmCdjqyYi1wKT4zTaLU-61">
          <mxGeometry relative="1" as="geometry">
            <mxPoint x="653" y="275" as="targetPoint" />
          </mxGeometry>
        </mxCell>
        <mxCell id="kFjChgy5pi1Nco4eD0_t-45" value="DIST&lt;div&gt;48-&lt;/div&gt;" style="rounded=0;whiteSpace=wrap;html=1;points=[[0,0,0,0,0],[0,0.25,0,0,0],[0,0.5,0,0,0],[0,0.75,0,0,0],[0,1,0,0,0],[0.14,0,0,0,0],[0.25,1,0,0,0],[0.3,0,0,0,0],[0.47,0,0,0,0],[0.5,1,0,0,0],[0.63,0,0,0,0],[0.75,0,0,0,0],[0.75,1,0,0,0],[0.88,0,0,0,0],[1,0,0,0,0],[1,0.25,0,0,0],[1,0.5,0,0,0],[1,0.75,0,0,0],[1,1,0,0,0]];fillColor=#66FF66;fontColor=#000000;" parent="1" vertex="1">
          <mxGeometry x="841" y="75" width="187" height="55" as="geometry" />
        </mxCell>
        <mxCell id="kFjChgy5pi1Nco4eD0_t-46" style="edgeStyle=orthogonalEdgeStyle;rounded=0;orthogonalLoop=1;jettySize=auto;html=1;exitX=1;exitY=0.29;exitDx=0;exitDy=0;exitPerimeter=0;entryX=0;entryY=0.5;entryDx=0;entryDy=0;entryPerimeter=0;" parent="1" source="NwmCdjqyYi1wKT4zTaLU-8" target="kFjChgy5pi1Nco4eD0_t-45" edge="1">
          <mxGeometry relative="1" as="geometry" />
        </mxCell>
        <mxCell id="kFjChgy5pi1Nco4eD0_t-47" style="edgeStyle=orthogonalEdgeStyle;rounded=0;orthogonalLoop=1;jettySize=auto;html=1;exitX=1;exitY=0.2;exitDx=0;exitDy=0;exitPerimeter=0;entryX=0;entryY=0.75;entryDx=0;entryDy=0;entryPerimeter=0;strokeColor=#ffff66;jumpStyle=arc;" parent="1" source="NwmCdjqyYi1wKT4zTaLU-11" target="NwmCdjqyYi1wKT4zTaLU-61" edge="1">
          <mxGeometry relative="1" as="geometry">
            <Array as="points">
              <mxPoint x="627" y="414" />
              <mxPoint x="627" y="299" />
            </Array>
          </mxGeometry>
        </mxCell>
        <mxCell id="kFjChgy5pi1Nco4eD0_t-48" style="edgeStyle=orthogonalEdgeStyle;rounded=0;orthogonalLoop=1;jettySize=auto;html=1;exitX=1;exitY=0.25;exitDx=0;exitDy=0;entryX=0;entryY=0.5;entryDx=0;entryDy=0;entryPerimeter=0;strokeColor=#FF0000;" parent="1" source="NwmCdjqyYi1wKT4zTaLU-62" target="kFjChgy5pi1Nco4eD0_t-23" edge="1">
          <mxGeometry relative="1" as="geometry" />
        </mxCell>
        <mxCell id="NwmCdjqyYi1wKT4zTaLU-81" value="RPI" style="rounded=0;whiteSpace=wrap;html=1;fillColor=#a20025;points=[[0,0,0,0,0],[0,0.25,0,0,0],[0,0.5,0,0,0],[0,0.75,0,0,0],[0,1,0,0,0],[0.25,0,0,0,0],[0.25,1,0,0,0],[0.5,0,0,0,0],[0.5,1,0,0,0],[0.75,0,0,0,0],[0.75,1,0,0,0],[1,0,0,0,0],[1,0.1,0,0,0],[1,0.23,0,0,0],[1,0.36,0,0,0],[1,0.5,0,0,0],[1,0.62,0,0,0],[1,0.75,0,0,0],[1,0.88,0,0,0],[1,1,0,0,0]];fontColor=#ffffff;strokeColor=#6F0000;" parent="1" vertex="1">
          <mxGeometry x="1102" y="641" width="108" height="57" as="geometry" />
        </mxCell>
        <mxCell id="6gnXWZiP712-ZntQqO50-1" style="edgeStyle=orthogonalEdgeStyle;rounded=0;orthogonalLoop=1;jettySize=auto;html=1;exitX=1;exitY=0.25;exitDx=0;exitDy=0;exitPerimeter=0;entryX=0.75;entryY=0;entryDx=0;entryDy=0;entryPerimeter=0;strokeColor=#FF0000;" edge="1" parent="1" source="kFjChgy5pi1Nco4eD0_t-13" target="NwmCdjqyYi1wKT4zTaLU-60">
          <mxGeometry relative="1" as="geometry">
            <Array as="points">
              <mxPoint x="1068" y="233" />
              <mxPoint x="1068" y="216" />
            </Array>
          </mxGeometry>
        </mxCell>
        <mxCell id="6gnXWZiP712-ZntQqO50-14" value="24V" style="edgeLabel;html=1;align=center;verticalAlign=middle;resizable=0;points=[];" vertex="1" connectable="0" parent="6gnXWZiP712-ZntQqO50-1">
          <mxGeometry x="0.62" y="-3" relative="1" as="geometry">
            <mxPoint x="13" y="-15" as="offset" />
          </mxGeometry>
        </mxCell>
        <mxCell id="NwmCdjqyYi1wKT4zTaLU-4" value="MOTOR X1" style="rounded=0;whiteSpace=wrap;html=1;fillColor=#FF33FF;points=[[0,0,0,0,0],[0,1,0,0,0],[0.14,1,0,0,0],[0.3,1,0,0,0],[0.34,0,0,0,0],[0.46,1,0,0,0],[0.62,1,0,0,0],[0.67,0,0,0,0],[0.75,1,0,0,0],[0.87,1,0,0,0],[1,0,0,0,0],[1,1,0,0,0]];" parent="1" vertex="1">
          <mxGeometry x="1081" y="-165" width="170" height="47.17" as="geometry" />
        </mxCell>
        <mxCell id="6gnXWZiP712-ZntQqO50-7" value="MOTOR X2" style="rounded=0;whiteSpace=wrap;html=1;fillColor=#FF33FF;points=[[0,0,0,0,0],[0,1,0,0,0],[0.14,1,0,0,0],[0.3,1,0,0,0],[0.34,0,0,0,0],[0.46,1,0,0,0],[0.62,1,0,0,0],[0.67,0,0,0,0],[0.75,1,0,0,0],[0.87,1,0,0,0],[1,0,0,0,0],[1,1,0,0,0]];" vertex="1" parent="1">
          <mxGeometry x="1308" y="-165" width="170" height="47.17" as="geometry" />
        </mxCell>
        <mxCell id="6gnXWZiP712-ZntQqO50-8" value="MOTOR Y" style="rounded=0;whiteSpace=wrap;html=1;fillColor=#FF33FF;points=[[0,0,0,0,0],[0,1,0,0,0],[0.14,1,0,0,0],[0.3,1,0,0,0],[0.34,0,0,0,0],[0.46,1,0,0,0],[0.62,1,0,0,0],[0.67,0,0,0,0],[0.75,1,0,0,0],[0.87,1,0,0,0],[1,0,0,0,0],[1,1,0,0,0]];" vertex="1" parent="1">
          <mxGeometry x="1538" y="-165" width="170" height="47.17" as="geometry" />
        </mxCell>
        <mxCell id="6gnXWZiP712-ZntQqO50-9" value="MOTOR Z" style="rounded=0;whiteSpace=wrap;html=1;fillColor=#FF33FF;points=[[0,0,0,0,0],[0,1,0,0,0],[0.14,1,0,0,0],[0.3,1,0,0,0],[0.34,0,0,0,0],[0.46,1,0,0,0],[0.62,1,0,0,0],[0.67,0,0,0,0],[0.75,1,0,0,0],[0.87,1,0,0,0],[1,0,0,0,0],[1,1,0,0,0]];" vertex="1" parent="1">
          <mxGeometry x="1769" y="-166" width="170" height="47.17" as="geometry" />
        </mxCell>
        <mxCell id="6gnXWZiP712-ZntQqO50-11" value="DIST 5-" style="rounded=0;whiteSpace=wrap;html=1;points=[[0,0,0,0,0],[0,0.25,0,0,0],[0,0.5,0,0,0],[0,0.75,0,0,0],[0,1,0,0,0],[0.13,0,0,0,0],[0.25,1,0,0,0],[0.3,0,0,0,0],[0.5,0,0,0,0],[0.5,1,0,0,0],[0.68,0,0,0,0],[0.75,1,0,0,0],[0.87,0,0,0,0],[1,0,0,0,0],[1,0.25,0,0,0],[1,0.5,0,0,0],[1,0.75,0,0,0],[1,1,0,0,0]];fillColor=#66FF66;fontColor=#000000;" vertex="1" parent="1">
          <mxGeometry x="880" y="596" width="67" height="115" as="geometry" />
        </mxCell>
        <mxCell id="6gnXWZiP712-ZntQqO50-12" style="edgeStyle=orthogonalEdgeStyle;rounded=0;orthogonalLoop=1;jettySize=auto;html=1;exitX=1;exitY=0.75;exitDx=0;exitDy=0;entryX=0;entryY=0.25;entryDx=0;entryDy=0;entryPerimeter=0;" edge="1" parent="1" source="NwmCdjqyYi1wKT4zTaLU-62" target="6gnXWZiP712-ZntQqO50-11">
          <mxGeometry relative="1" as="geometry">
            <Array as="points">
              <mxPoint x="788" y="450" />
              <mxPoint x="788" y="625" />
            </Array>
          </mxGeometry>
        </mxCell>
        <mxCell id="6gnXWZiP712-ZntQqO50-19" style="edgeStyle=orthogonalEdgeStyle;rounded=0;orthogonalLoop=1;jettySize=auto;html=1;exitX=1;exitY=0.5;exitDx=0;exitDy=0;exitPerimeter=0;entryX=0.75;entryY=1;entryDx=0;entryDy=0;entryPerimeter=0;" edge="1" parent="1" source="6gnXWZiP712-ZntQqO50-11" target="NwmCdjqyYi1wKT4zTaLU-81">
          <mxGeometry relative="1" as="geometry">
            <Array as="points">
              <mxPoint x="982" y="654" />
              <mxPoint x="982" y="724" />
              <mxPoint x="1187" y="724" />
            </Array>
          </mxGeometry>
        </mxCell>
        <mxCell id="6gnXWZiP712-ZntQqO50-23" style="edgeStyle=orthogonalEdgeStyle;rounded=0;orthogonalLoop=1;jettySize=auto;html=1;exitX=0.14;exitY=0;exitDx=0;exitDy=0;exitPerimeter=0;entryX=0.67;entryY=0;entryDx=0;entryDy=0;entryPerimeter=0;strokeColor=#FF0000;" edge="1" parent="1" source="NwmCdjqyYi1wKT4zTaLU-39" target="6gnXWZiP712-ZntQqO50-9">
          <mxGeometry relative="1" as="geometry">
            <Array as="points">
              <mxPoint x="867" y="-309" />
              <mxPoint x="1816" y="-309" />
            </Array>
          </mxGeometry>
        </mxCell>
        <mxCell id="6gnXWZiP712-ZntQqO50-72" value="P+" style="edgeLabel;html=1;align=center;verticalAlign=middle;resizable=0;points=[];" vertex="1" connectable="0" parent="6gnXWZiP712-ZntQqO50-23">
          <mxGeometry x="0.9349" y="3" relative="1" as="geometry">
            <mxPoint as="offset" />
          </mxGeometry>
        </mxCell>
        <mxCell id="6gnXWZiP712-ZntQqO50-24" style="edgeStyle=orthogonalEdgeStyle;rounded=0;orthogonalLoop=1;jettySize=auto;html=1;exitX=0.3;exitY=0;exitDx=0;exitDy=0;exitPerimeter=0;entryX=0.67;entryY=0;entryDx=0;entryDy=0;entryPerimeter=0;strokeColor=#FF0000;" edge="1" parent="1" source="NwmCdjqyYi1wKT4zTaLU-39" target="6gnXWZiP712-ZntQqO50-8">
          <mxGeometry relative="1" as="geometry">
            <Array as="points">
              <mxPoint x="904" y="-265" />
              <mxPoint x="1652" y="-265" />
            </Array>
          </mxGeometry>
        </mxCell>
        <mxCell id="6gnXWZiP712-ZntQqO50-70" value="P+" style="edgeLabel;html=1;align=center;verticalAlign=middle;resizable=0;points=[];" vertex="1" connectable="0" parent="6gnXWZiP712-ZntQqO50-24">
          <mxGeometry x="0.9185" y="-4" relative="1" as="geometry">
            <mxPoint as="offset" />
          </mxGeometry>
        </mxCell>
        <mxCell id="6gnXWZiP712-ZntQqO50-25" style="edgeStyle=orthogonalEdgeStyle;rounded=0;orthogonalLoop=1;jettySize=auto;html=1;exitX=0.47;exitY=0;exitDx=0;exitDy=0;exitPerimeter=0;entryX=0.67;entryY=0;entryDx=0;entryDy=0;entryPerimeter=0;strokeColor=#FF0000;" edge="1" parent="1" source="NwmCdjqyYi1wKT4zTaLU-39" target="6gnXWZiP712-ZntQqO50-7">
          <mxGeometry relative="1" as="geometry">
            <Array as="points">
              <mxPoint x="939" y="-239" />
              <mxPoint x="1419" y="-239" />
              <mxPoint x="1419" y="-165" />
            </Array>
          </mxGeometry>
        </mxCell>
        <mxCell id="6gnXWZiP712-ZntQqO50-68" value="P+" style="edgeLabel;html=1;align=center;verticalAlign=middle;resizable=0;points=[];" vertex="1" connectable="0" parent="6gnXWZiP712-ZntQqO50-25">
          <mxGeometry x="0.8785" y="1" relative="1" as="geometry">
            <mxPoint as="offset" />
          </mxGeometry>
        </mxCell>
        <mxCell id="6gnXWZiP712-ZntQqO50-26" style="edgeStyle=orthogonalEdgeStyle;rounded=0;orthogonalLoop=1;jettySize=auto;html=1;exitX=0.63;exitY=0;exitDx=0;exitDy=0;exitPerimeter=0;entryX=0.67;entryY=0;entryDx=0;entryDy=0;entryPerimeter=0;strokeColor=#FF0000;" edge="1" parent="1" source="NwmCdjqyYi1wKT4zTaLU-39" target="NwmCdjqyYi1wKT4zTaLU-4">
          <mxGeometry relative="1" as="geometry">
            <Array as="points">
              <mxPoint x="973" y="-209" />
              <mxPoint x="1195" y="-209" />
            </Array>
          </mxGeometry>
        </mxCell>
        <mxCell id="6gnXWZiP712-ZntQqO50-65" value="P+" style="edgeLabel;html=1;align=center;verticalAlign=middle;resizable=0;points=[];" vertex="1" connectable="0" parent="6gnXWZiP712-ZntQqO50-26">
          <mxGeometry x="0.8898" y="-4" relative="1" as="geometry">
            <mxPoint as="offset" />
          </mxGeometry>
        </mxCell>
        <mxCell id="6gnXWZiP712-ZntQqO50-33" style="edgeStyle=orthogonalEdgeStyle;rounded=0;orthogonalLoop=1;jettySize=auto;html=1;exitX=1;exitY=0.07;exitDx=0;exitDy=0;exitPerimeter=0;entryX=0.14;entryY=1;entryDx=0;entryDy=0;entryPerimeter=0;strokeColor=#FFB366;" edge="1" parent="1" source="NwmCdjqyYi1wKT4zTaLU-60" target="NwmCdjqyYi1wKT4zTaLU-4">
          <mxGeometry relative="1" as="geometry">
            <Array as="points">
              <mxPoint x="1224" y="115" />
              <mxPoint x="1105" y="115" />
            </Array>
          </mxGeometry>
        </mxCell>
        <mxCell id="6gnXWZiP712-ZntQqO50-49" value="XS+" style="edgeLabel;html=1;align=center;verticalAlign=middle;resizable=0;points=[];" vertex="1" connectable="0" parent="6gnXWZiP712-ZntQqO50-33">
          <mxGeometry x="-0.9004" y="3" relative="1" as="geometry">
            <mxPoint x="5" y="-9" as="offset" />
          </mxGeometry>
        </mxCell>
        <mxCell id="6gnXWZiP712-ZntQqO50-34" style="edgeStyle=orthogonalEdgeStyle;rounded=0;orthogonalLoop=1;jettySize=auto;html=1;exitX=1;exitY=0.14;exitDx=0;exitDy=0;exitPerimeter=0;entryX=0.3;entryY=1;entryDx=0;entryDy=0;entryPerimeter=0;strokeColor=#FFB366;" edge="1" parent="1" source="NwmCdjqyYi1wKT4zTaLU-60" target="NwmCdjqyYi1wKT4zTaLU-4">
          <mxGeometry relative="1" as="geometry">
            <Array as="points">
              <mxPoint x="1265" y="82" />
              <mxPoint x="1132" y="82" />
            </Array>
          </mxGeometry>
        </mxCell>
        <mxCell id="6gnXWZiP712-ZntQqO50-50" value="XS-" style="edgeLabel;html=1;align=center;verticalAlign=middle;resizable=0;points=[];" vertex="1" connectable="0" parent="6gnXWZiP712-ZntQqO50-34">
          <mxGeometry x="-0.8612" y="2" relative="1" as="geometry">
            <mxPoint as="offset" />
          </mxGeometry>
        </mxCell>
        <mxCell id="6gnXWZiP712-ZntQqO50-35" style="edgeStyle=orthogonalEdgeStyle;rounded=0;orthogonalLoop=1;jettySize=auto;html=1;exitX=1;exitY=0.19;exitDx=0;exitDy=0;exitPerimeter=0;entryX=0.46;entryY=1;entryDx=0;entryDy=0;entryPerimeter=0;strokeColor=#FFB366;" edge="1" parent="1" source="NwmCdjqyYi1wKT4zTaLU-60" target="NwmCdjqyYi1wKT4zTaLU-4">
          <mxGeometry relative="1" as="geometry">
            <Array as="points">
              <mxPoint x="1295" y="50" />
              <mxPoint x="1159" y="50" />
            </Array>
          </mxGeometry>
        </mxCell>
        <mxCell id="6gnXWZiP712-ZntQqO50-51" value="XD+" style="edgeLabel;html=1;align=center;verticalAlign=middle;resizable=0;points=[];" vertex="1" connectable="0" parent="6gnXWZiP712-ZntQqO50-35">
          <mxGeometry x="-0.8621" y="1" relative="1" as="geometry">
            <mxPoint as="offset" />
          </mxGeometry>
        </mxCell>
        <mxCell id="6gnXWZiP712-ZntQqO50-36" style="edgeStyle=orthogonalEdgeStyle;rounded=0;orthogonalLoop=1;jettySize=auto;html=1;exitX=1;exitY=0.24;exitDx=0;exitDy=0;exitPerimeter=0;entryX=0.62;entryY=1;entryDx=0;entryDy=0;entryPerimeter=0;strokeColor=#FFB366;" edge="1" parent="1" source="NwmCdjqyYi1wKT4zTaLU-60" target="NwmCdjqyYi1wKT4zTaLU-4">
          <mxGeometry relative="1" as="geometry">
            <Array as="points">
              <mxPoint x="1325" y="22" />
              <mxPoint x="1186" y="22" />
            </Array>
          </mxGeometry>
        </mxCell>
        <mxCell id="6gnXWZiP712-ZntQqO50-52" value="XD-" style="edgeLabel;html=1;align=center;verticalAlign=middle;resizable=0;points=[];" vertex="1" connectable="0" parent="6gnXWZiP712-ZntQqO50-36">
          <mxGeometry x="-0.8629" y="2" relative="1" as="geometry">
            <mxPoint as="offset" />
          </mxGeometry>
        </mxCell>
        <mxCell id="6gnXWZiP712-ZntQqO50-37" style="edgeStyle=orthogonalEdgeStyle;rounded=0;orthogonalLoop=1;jettySize=auto;html=1;exitX=1;exitY=0.29;exitDx=0;exitDy=0;exitPerimeter=0;entryX=0.14;entryY=1;entryDx=0;entryDy=0;entryPerimeter=0;strokeColor=#FFB366;" edge="1" parent="1" source="NwmCdjqyYi1wKT4zTaLU-60" target="6gnXWZiP712-ZntQqO50-7">
          <mxGeometry relative="1" as="geometry">
            <Array as="points">
              <mxPoint x="1355" y="-6" />
              <mxPoint x="1332" y="-6" />
            </Array>
          </mxGeometry>
        </mxCell>
        <mxCell id="6gnXWZiP712-ZntQqO50-53" value="YS+" style="edgeLabel;html=1;align=center;verticalAlign=middle;resizable=0;points=[];" vertex="1" connectable="0" parent="6gnXWZiP712-ZntQqO50-37">
          <mxGeometry x="-0.7934" relative="1" as="geometry">
            <mxPoint as="offset" />
          </mxGeometry>
        </mxCell>
        <mxCell id="6gnXWZiP712-ZntQqO50-38" style="edgeStyle=orthogonalEdgeStyle;rounded=0;orthogonalLoop=1;jettySize=auto;html=1;exitX=1;exitY=0.34;exitDx=0;exitDy=0;exitPerimeter=0;entryX=0.3;entryY=1;entryDx=0;entryDy=0;entryPerimeter=0;strokeColor=#FFB366;" edge="1" parent="1" source="NwmCdjqyYi1wKT4zTaLU-60" target="6gnXWZiP712-ZntQqO50-7">
          <mxGeometry relative="1" as="geometry">
            <Array as="points">
              <mxPoint x="1384" y="-28" />
              <mxPoint x="1359" y="-28" />
            </Array>
          </mxGeometry>
        </mxCell>
        <mxCell id="6gnXWZiP712-ZntQqO50-54" value="YS-" style="edgeLabel;html=1;align=center;verticalAlign=middle;resizable=0;points=[];" vertex="1" connectable="0" parent="6gnXWZiP712-ZntQqO50-38">
          <mxGeometry x="-0.7867" y="-1" relative="1" as="geometry">
            <mxPoint as="offset" />
          </mxGeometry>
        </mxCell>
        <mxCell id="6gnXWZiP712-ZntQqO50-39" style="edgeStyle=orthogonalEdgeStyle;rounded=0;orthogonalLoop=1;jettySize=auto;html=1;exitX=1;exitY=0.39;exitDx=0;exitDy=0;exitPerimeter=0;entryX=0.46;entryY=1;entryDx=0;entryDy=0;entryPerimeter=0;strokeColor=#FFB366;" edge="1" parent="1" source="NwmCdjqyYi1wKT4zTaLU-60" target="6gnXWZiP712-ZntQqO50-7">
          <mxGeometry relative="1" as="geometry">
            <Array as="points">
              <mxPoint x="1414" y="-45" />
              <mxPoint x="1386" y="-45" />
            </Array>
          </mxGeometry>
        </mxCell>
        <mxCell id="6gnXWZiP712-ZntQqO50-55" value="YD+" style="edgeLabel;html=1;align=center;verticalAlign=middle;resizable=0;points=[];" vertex="1" connectable="0" parent="6gnXWZiP712-ZntQqO50-39">
          <mxGeometry x="-0.8623" y="-6" relative="1" as="geometry">
            <mxPoint x="-5" y="-11" as="offset" />
          </mxGeometry>
        </mxCell>
        <mxCell id="6gnXWZiP712-ZntQqO50-40" style="edgeStyle=orthogonalEdgeStyle;rounded=0;orthogonalLoop=1;jettySize=auto;html=1;exitX=1;exitY=0.45;exitDx=0;exitDy=0;exitPerimeter=0;entryX=0.62;entryY=1;entryDx=0;entryDy=0;entryPerimeter=0;strokeColor=#FFB366;" edge="1" parent="1" source="NwmCdjqyYi1wKT4zTaLU-60" target="6gnXWZiP712-ZntQqO50-7">
          <mxGeometry relative="1" as="geometry">
            <Array as="points">
              <mxPoint x="1450" y="-64" />
              <mxPoint x="1413" y="-64" />
            </Array>
          </mxGeometry>
        </mxCell>
        <mxCell id="6gnXWZiP712-ZntQqO50-56" value="YD-" style="edgeLabel;html=1;align=center;verticalAlign=middle;resizable=0;points=[];" vertex="1" connectable="0" parent="6gnXWZiP712-ZntQqO50-40">
          <mxGeometry x="-0.7862" relative="1" as="geometry">
            <mxPoint x="-2" y="2" as="offset" />
          </mxGeometry>
        </mxCell>
        <mxCell id="6gnXWZiP712-ZntQqO50-41" style="edgeStyle=orthogonalEdgeStyle;rounded=0;orthogonalLoop=1;jettySize=auto;html=1;exitX=1;exitY=0.5;exitDx=0;exitDy=0;exitPerimeter=0;entryX=0.14;entryY=1;entryDx=0;entryDy=0;entryPerimeter=0;strokeColor=#FFB366;" edge="1" parent="1" source="NwmCdjqyYi1wKT4zTaLU-60" target="6gnXWZiP712-ZntQqO50-8">
          <mxGeometry relative="1" as="geometry">
            <Array as="points">
              <mxPoint x="1480" y="-69" />
              <mxPoint x="1562" y="-69" />
            </Array>
          </mxGeometry>
        </mxCell>
        <mxCell id="6gnXWZiP712-ZntQqO50-57" value="ZS+" style="edgeLabel;html=1;align=center;verticalAlign=middle;resizable=0;points=[];" vertex="1" connectable="0" parent="6gnXWZiP712-ZntQqO50-41">
          <mxGeometry x="-0.7481" relative="1" as="geometry">
            <mxPoint x="2" y="15" as="offset" />
          </mxGeometry>
        </mxCell>
        <mxCell id="6gnXWZiP712-ZntQqO50-42" style="edgeStyle=orthogonalEdgeStyle;rounded=0;orthogonalLoop=1;jettySize=auto;html=1;exitX=1;exitY=0.55;exitDx=0;exitDy=0;exitPerimeter=0;entryX=0.3;entryY=1;entryDx=0;entryDy=0;entryPerimeter=0;strokeColor=#FFB366;" edge="1" parent="1" source="NwmCdjqyYi1wKT4zTaLU-60" target="6gnXWZiP712-ZntQqO50-8">
          <mxGeometry relative="1" as="geometry">
            <Array as="points">
              <mxPoint x="1509" y="-44" />
              <mxPoint x="1589" y="-44" />
            </Array>
          </mxGeometry>
        </mxCell>
        <mxCell id="6gnXWZiP712-ZntQqO50-58" value="ZS-" style="edgeLabel;html=1;align=center;verticalAlign=middle;resizable=0;points=[];" vertex="1" connectable="0" parent="6gnXWZiP712-ZntQqO50-42">
          <mxGeometry x="-0.8024" y="-3" relative="1" as="geometry">
            <mxPoint as="offset" />
          </mxGeometry>
        </mxCell>
        <mxCell id="6gnXWZiP712-ZntQqO50-43" style="edgeStyle=orthogonalEdgeStyle;rounded=0;orthogonalLoop=1;jettySize=auto;html=1;exitX=1;exitY=0.59;exitDx=0;exitDy=0;exitPerimeter=0;entryX=0.46;entryY=1;entryDx=0;entryDy=0;entryPerimeter=0;strokeColor=#FFB366;" edge="1" parent="1" source="NwmCdjqyYi1wKT4zTaLU-60" target="6gnXWZiP712-ZntQqO50-8">
          <mxGeometry relative="1" as="geometry">
            <Array as="points">
              <mxPoint x="1533" y="-9" />
              <mxPoint x="1616" y="-9" />
            </Array>
          </mxGeometry>
        </mxCell>
        <mxCell id="6gnXWZiP712-ZntQqO50-59" value="ZD-" style="edgeLabel;html=1;align=center;verticalAlign=middle;resizable=0;points=[];" vertex="1" connectable="0" parent="6gnXWZiP712-ZntQqO50-43">
          <mxGeometry x="-0.8044" y="-1" relative="1" as="geometry">
            <mxPoint as="offset" />
          </mxGeometry>
        </mxCell>
        <mxCell id="6gnXWZiP712-ZntQqO50-44" style="edgeStyle=orthogonalEdgeStyle;rounded=0;orthogonalLoop=1;jettySize=auto;html=1;exitX=1;exitY=0.64;exitDx=0;exitDy=0;exitPerimeter=0;entryX=0.62;entryY=1;entryDx=0;entryDy=0;entryPerimeter=0;strokeColor=#FFB366;" edge="1" parent="1" source="NwmCdjqyYi1wKT4zTaLU-60" target="6gnXWZiP712-ZntQqO50-8">
          <mxGeometry relative="1" as="geometry">
            <Array as="points">
              <mxPoint x="1563" y="15" />
              <mxPoint x="1643" y="15" />
            </Array>
          </mxGeometry>
        </mxCell>
        <mxCell id="6gnXWZiP712-ZntQqO50-60" value="ZD+" style="edgeLabel;html=1;align=center;verticalAlign=middle;resizable=0;points=[];" vertex="1" connectable="0" parent="6gnXWZiP712-ZntQqO50-44">
          <mxGeometry x="-0.8169" y="2" relative="1" as="geometry">
            <mxPoint as="offset" />
          </mxGeometry>
        </mxCell>
        <mxCell id="6gnXWZiP712-ZntQqO50-45" style="edgeStyle=orthogonalEdgeStyle;rounded=0;orthogonalLoop=1;jettySize=auto;html=1;exitX=1;exitY=0.69;exitDx=0;exitDy=0;exitPerimeter=0;entryX=0.187;entryY=1.039;entryDx=0;entryDy=0;entryPerimeter=0;strokeColor=#FFB366;" edge="1" parent="1" source="NwmCdjqyYi1wKT4zTaLU-60" target="6gnXWZiP712-ZntQqO50-9">
          <mxGeometry relative="1" as="geometry">
            <Array as="points">
              <mxPoint x="1593" y="37" />
              <mxPoint x="1801" y="37" />
            </Array>
          </mxGeometry>
        </mxCell>
        <mxCell id="6gnXWZiP712-ZntQqO50-61" value="AS+" style="edgeLabel;html=1;align=center;verticalAlign=middle;resizable=0;points=[];" vertex="1" connectable="0" parent="6gnXWZiP712-ZntQqO50-45">
          <mxGeometry x="-0.8391" y="4" relative="1" as="geometry">
            <mxPoint x="5" y="8" as="offset" />
          </mxGeometry>
        </mxCell>
        <mxCell id="6gnXWZiP712-ZntQqO50-46" style="edgeStyle=orthogonalEdgeStyle;rounded=0;orthogonalLoop=1;jettySize=auto;html=1;exitX=1;exitY=0.75;exitDx=0;exitDy=0;exitPerimeter=0;entryX=0.3;entryY=1;entryDx=0;entryDy=0;entryPerimeter=0;strokeColor=#FFB366;" edge="1" parent="1" source="NwmCdjqyYi1wKT4zTaLU-60" target="6gnXWZiP712-ZntQqO50-9">
          <mxGeometry relative="1" as="geometry">
            <Array as="points">
              <mxPoint x="1628" y="63" />
              <mxPoint x="1820" y="63" />
            </Array>
          </mxGeometry>
        </mxCell>
        <mxCell id="6gnXWZiP712-ZntQqO50-62" value="AS-" style="edgeLabel;html=1;align=center;verticalAlign=middle;resizable=0;points=[];" vertex="1" connectable="0" parent="6gnXWZiP712-ZntQqO50-46">
          <mxGeometry x="-0.8926" y="-4" relative="1" as="geometry">
            <mxPoint as="offset" />
          </mxGeometry>
        </mxCell>
        <mxCell id="6gnXWZiP712-ZntQqO50-47" style="edgeStyle=orthogonalEdgeStyle;rounded=0;orthogonalLoop=1;jettySize=auto;html=1;exitX=1;exitY=0.81;exitDx=0;exitDy=0;exitPerimeter=0;entryX=0.46;entryY=1;entryDx=0;entryDy=0;entryPerimeter=0;strokeColor=#FFB366;" edge="1" parent="1" source="NwmCdjqyYi1wKT4zTaLU-60" target="6gnXWZiP712-ZntQqO50-9">
          <mxGeometry relative="1" as="geometry">
            <Array as="points">
              <mxPoint x="1664" y="89" />
              <mxPoint x="1847" y="89" />
            </Array>
          </mxGeometry>
        </mxCell>
        <mxCell id="6gnXWZiP712-ZntQqO50-63" value="AD+" style="edgeLabel;html=1;align=center;verticalAlign=middle;resizable=0;points=[];" vertex="1" connectable="0" parent="6gnXWZiP712-ZntQqO50-47">
          <mxGeometry x="-0.8961" y="1" relative="1" as="geometry">
            <mxPoint as="offset" />
          </mxGeometry>
        </mxCell>
        <mxCell id="6gnXWZiP712-ZntQqO50-48" style="edgeStyle=orthogonalEdgeStyle;rounded=0;orthogonalLoop=1;jettySize=auto;html=1;exitX=1;exitY=0.93;exitDx=0;exitDy=0;exitPerimeter=0;entryX=0.62;entryY=1;entryDx=0;entryDy=0;entryPerimeter=0;strokeColor=#FFB366;" edge="1" parent="1" source="NwmCdjqyYi1wKT4zTaLU-60" target="6gnXWZiP712-ZntQqO50-9">
          <mxGeometry relative="1" as="geometry">
            <Array as="points">
              <mxPoint x="1735" y="118" />
              <mxPoint x="1874" y="118" />
            </Array>
          </mxGeometry>
        </mxCell>
        <mxCell id="6gnXWZiP712-ZntQqO50-64" value="AD-" style="edgeLabel;html=1;align=center;verticalAlign=middle;resizable=0;points=[];" vertex="1" connectable="0" parent="6gnXWZiP712-ZntQqO50-48">
          <mxGeometry x="-0.8971" y="1" relative="1" as="geometry">
            <mxPoint as="offset" />
          </mxGeometry>
        </mxCell>
        <mxCell id="6gnXWZiP712-ZntQqO50-74" value="" style="group" vertex="1" connectable="0" parent="1">
          <mxGeometry x="201" y="35" width="97" height="415" as="geometry" />
        </mxCell>
        <mxCell id="NwmCdjqyYi1wKT4zTaLU-9" value="L DIST" style="rounded=0;whiteSpace=wrap;html=1;fillColor=#66FF66;fontColor=#000000;" parent="6gnXWZiP712-ZntQqO50-74" vertex="1">
          <mxGeometry x="2" width="95" height="106" as="geometry" />
        </mxCell>
        <mxCell id="NwmCdjqyYi1wKT4zTaLU-10" value="N DIST" style="rounded=0;whiteSpace=wrap;html=1;fillColor=#66FF66;fontColor=#000000;" parent="6gnXWZiP712-ZntQqO50-74" vertex="1">
          <mxGeometry x="-1" y="191" width="95" height="108" as="geometry" />
        </mxCell>
        <mxCell id="6gnXWZiP712-ZntQqO50-96" style="edgeStyle=orthogonalEdgeStyle;rounded=0;orthogonalLoop=1;jettySize=auto;html=1;exitX=1;exitY=0.6;exitDx=0;exitDy=0;exitPerimeter=0;entryX=0.25;entryY=1;entryDx=0;entryDy=0;strokeColor=#FFFF69;" edge="1" parent="1" source="NwmCdjqyYi1wKT4zTaLU-11" target="6gnXWZiP712-ZntQqO50-93">
          <mxGeometry relative="1" as="geometry" />
        </mxCell>
        <mxCell id="NwmCdjqyYi1wKT4zTaLU-11" value="G DIST" style="rounded=0;whiteSpace=wrap;html=1;points=[[0,0,0,0,0],[0,0.25,0,0,0],[0,0.5,0,0,0],[0,0.75,0,0,0],[0,1,0,0,0],[0.25,0,0,0,0],[0.25,1,0,0,0],[0.5,0,0,0,0],[0.5,1,0,0,0],[0.75,0,0,0,0],[0.75,1,0,0,0],[1,0,0,0,0],[1,0.2,0,0,0],[1,0.4,0,0,0],[1,0.6,0,0,0],[1,0.8,0,0,0],[1,1,0,0,0]];fillColor=#66FF66;fontColor=#000000;" parent="1" vertex="1">
          <mxGeometry x="195" y="382" width="93" height="162" as="geometry" />
        </mxCell>
        <mxCell id="6gnXWZiP712-ZntQqO50-84" style="edgeStyle=orthogonalEdgeStyle;rounded=0;orthogonalLoop=1;jettySize=auto;html=1;exitX=0.024;exitY=0.675;exitDx=0;exitDy=0;exitPerimeter=0;entryX=-0.008;entryY=0.07;entryDx=0;entryDy=0;entryPerimeter=0;strokeColor=#FFB366;" edge="1" parent="1" source="6gnXWZiP712-ZntQqO50-79" target="NwmCdjqyYi1wKT4zTaLU-60">
          <mxGeometry relative="1" as="geometry" />
        </mxCell>
        <mxCell id="6gnXWZiP712-ZntQqO50-85" style="edgeStyle=orthogonalEdgeStyle;rounded=0;orthogonalLoop=1;jettySize=auto;html=1;exitX=0.041;exitY=0.337;exitDx=0;exitDy=0;exitPerimeter=0;entryX=-0.003;entryY=0.118;entryDx=0;entryDy=0;entryPerimeter=0;strokeColor=#FFB366;" edge="1" parent="1" source="6gnXWZiP712-ZntQqO50-79" target="NwmCdjqyYi1wKT4zTaLU-60">
          <mxGeometry relative="1" as="geometry" />
        </mxCell>
        <mxCell id="6gnXWZiP712-ZntQqO50-86" style="edgeStyle=orthogonalEdgeStyle;rounded=0;orthogonalLoop=1;jettySize=auto;html=1;exitX=0.014;exitY=0.63;exitDx=0;exitDy=0;exitPerimeter=0;entryX=0.002;entryY=0.179;entryDx=0;entryDy=0;entryPerimeter=0;strokeColor=#FFB366;" edge="1" parent="1" source="6gnXWZiP712-ZntQqO50-78" target="NwmCdjqyYi1wKT4zTaLU-60">
          <mxGeometry relative="1" as="geometry" />
        </mxCell>
        <mxCell id="6gnXWZiP712-ZntQqO50-87" style="edgeStyle=orthogonalEdgeStyle;rounded=0;orthogonalLoop=1;jettySize=auto;html=1;exitX=-0.021;exitY=0.373;exitDx=0;exitDy=0;exitPerimeter=0;entryX=0.002;entryY=0.244;entryDx=0;entryDy=0;entryPerimeter=0;strokeColor=#FFB366;" edge="1" parent="1" source="6gnXWZiP712-ZntQqO50-78" target="NwmCdjqyYi1wKT4zTaLU-60">
          <mxGeometry relative="1" as="geometry" />
        </mxCell>
        <mxCell id="6gnXWZiP712-ZntQqO50-89" style="edgeStyle=orthogonalEdgeStyle;rounded=0;orthogonalLoop=1;jettySize=auto;html=1;exitX=0;exitY=0.69;exitDx=0;exitDy=0;exitPerimeter=0;entryX=-0.003;entryY=0.292;entryDx=0;entryDy=0;entryPerimeter=0;strokeColor=#FFB366;" edge="1" parent="1" source="6gnXWZiP712-ZntQqO50-76" target="NwmCdjqyYi1wKT4zTaLU-60">
          <mxGeometry relative="1" as="geometry" />
        </mxCell>
        <mxCell id="6gnXWZiP712-ZntQqO50-90" style="edgeStyle=orthogonalEdgeStyle;rounded=0;orthogonalLoop=1;jettySize=auto;html=1;exitX=0;exitY=0.35;exitDx=0;exitDy=0;exitPerimeter=0;entryX=0.004;entryY=0.34;entryDx=0;entryDy=0;entryPerimeter=0;strokeColor=#FFB366;" edge="1" parent="1" source="6gnXWZiP712-ZntQqO50-76" target="NwmCdjqyYi1wKT4zTaLU-60">
          <mxGeometry relative="1" as="geometry" />
        </mxCell>
        <mxCell id="6gnXWZiP712-ZntQqO50-91" style="edgeStyle=orthogonalEdgeStyle;rounded=0;orthogonalLoop=1;jettySize=auto;html=1;exitX=0;exitY=0.64;exitDx=0;exitDy=0;exitPerimeter=0;entryX=0.013;entryY=0.406;entryDx=0;entryDy=0;entryPerimeter=0;strokeColor=#FFB366;" edge="1" parent="1" source="6gnXWZiP712-ZntQqO50-75" target="NwmCdjqyYi1wKT4zTaLU-60">
          <mxGeometry relative="1" as="geometry" />
        </mxCell>
        <mxCell id="6gnXWZiP712-ZntQqO50-92" style="edgeStyle=orthogonalEdgeStyle;rounded=0;orthogonalLoop=1;jettySize=auto;html=1;exitX=0;exitY=0.26;exitDx=0;exitDy=0;exitPerimeter=0;entryX=-0.002;entryY=0.464;entryDx=0;entryDy=0;entryPerimeter=0;strokeColor=#FFB366;" edge="1" parent="1" source="6gnXWZiP712-ZntQqO50-75" target="NwmCdjqyYi1wKT4zTaLU-60">
          <mxGeometry relative="1" as="geometry" />
        </mxCell>
        <mxCell id="6gnXWZiP712-ZntQqO50-94" style="edgeStyle=orthogonalEdgeStyle;rounded=0;orthogonalLoop=1;jettySize=auto;html=1;exitX=1;exitY=0.25;exitDx=0;exitDy=0;entryX=0;entryY=0.25;entryDx=0;entryDy=0;strokeColor=#754123;" edge="1" parent="1" source="6gnXWZiP712-ZntQqO50-93" target="NwmCdjqyYi1wKT4zTaLU-1">
          <mxGeometry relative="1" as="geometry" />
        </mxCell>
        <mxCell id="6gnXWZiP712-ZntQqO50-95" style="edgeStyle=orthogonalEdgeStyle;rounded=0;orthogonalLoop=1;jettySize=auto;html=1;exitX=1;exitY=0.75;exitDx=0;exitDy=0;entryX=0;entryY=0.5;entryDx=0;entryDy=0;strokeColor=#3399FF;" edge="1" parent="1" source="6gnXWZiP712-ZntQqO50-93" target="NwmCdjqyYi1wKT4zTaLU-1">
          <mxGeometry relative="1" as="geometry">
            <Array as="points">
              <mxPoint x="1116" y="809" />
              <mxPoint x="1116" y="849" />
            </Array>
          </mxGeometry>
        </mxCell>
        <mxCell id="6gnXWZiP712-ZntQqO50-93" value="LINE FILTER 16A" style="rounded=0;whiteSpace=wrap;html=1;fillColor=#6666FF;" vertex="1" parent="1">
          <mxGeometry x="648" y="763" width="120" height="61" as="geometry" />
        </mxCell>
        <mxCell id="6gnXWZiP712-ZntQqO50-97" style="edgeStyle=orthogonalEdgeStyle;rounded=0;orthogonalLoop=1;jettySize=auto;html=1;exitX=1;exitY=0.5;exitDx=0;exitDy=0;exitPerimeter=0;entryX=0.25;entryY=0;entryDx=0;entryDy=0;entryPerimeter=0;strokeColor=#FF0000;" edge="1" parent="1" source="kFjChgy5pi1Nco4eD0_t-23" target="NwmCdjqyYi1wKT4zTaLU-60">
          <mxGeometry relative="1" as="geometry">
            <Array as="points">
              <mxPoint x="1096" y="526" />
              <mxPoint x="1096" y="329" />
            </Array>
          </mxGeometry>
        </mxCell>
        <mxCell id="6gnXWZiP712-ZntQqO50-99" value="COM+" style="edgeLabel;html=1;align=center;verticalAlign=middle;resizable=0;points=[];" vertex="1" connectable="0" parent="6gnXWZiP712-ZntQqO50-97">
          <mxGeometry x="0.8046" y="7" relative="1" as="geometry">
            <mxPoint as="offset" />
          </mxGeometry>
        </mxCell>
        <mxCell id="6gnXWZiP712-ZntQqO50-98" style="edgeStyle=orthogonalEdgeStyle;rounded=0;orthogonalLoop=1;jettySize=auto;html=1;exitX=1;exitY=0.25;exitDx=0;exitDy=0;exitPerimeter=0;entryX=0.119;entryY=0.003;entryDx=0;entryDy=0;entryPerimeter=0;" edge="1" parent="1" source="6gnXWZiP712-ZntQqO50-11" target="NwmCdjqyYi1wKT4zTaLU-60">
          <mxGeometry relative="1" as="geometry">
            <Array as="points">
              <mxPoint x="1123" y="625" />
              <mxPoint x="1123" y="359" />
            </Array>
          </mxGeometry>
        </mxCell>
        <mxCell id="6gnXWZiP712-ZntQqO50-100" value="COM-" style="edgeLabel;html=1;align=center;verticalAlign=middle;resizable=0;points=[];" vertex="1" connectable="0" parent="6gnXWZiP712-ZntQqO50-98">
          <mxGeometry x="0.7987" y="-5" relative="1" as="geometry">
            <mxPoint x="10" y="4" as="offset" />
          </mxGeometry>
        </mxCell>
        <mxCell id="NwmCdjqyYi1wKT4zTaLU-62" value="DCDC 24/5" style="rounded=0;whiteSpace=wrap;html=1;fillColor=#66FFFF;fontColor=#000000;" parent="1" vertex="1">
          <mxGeometry x="697" y="399" width="67" height="68.13" as="geometry" />
        </mxCell>
        <mxCell id="kFjChgy5pi1Nco4eD0_t-33" style="edgeStyle=orthogonalEdgeStyle;rounded=0;orthogonalLoop=1;jettySize=auto;html=1;exitX=1;exitY=0.84;exitDx=0;exitDy=0;exitPerimeter=0;entryX=0;entryY=0.75;entryDx=0;entryDy=0;" parent="1" source="NwmCdjqyYi1wKT4zTaLU-61" target="NwmCdjqyYi1wKT4zTaLU-62" edge="1">
          <mxGeometry relative="1" as="geometry">
            <Array as="points">
              <mxPoint x="776" y="308" />
              <mxPoint x="776" y="333" />
              <mxPoint x="666" y="333" />
              <mxPoint x="666" y="450" />
            </Array>
          </mxGeometry>
        </mxCell>
        <mxCell id="kFjChgy5pi1Nco4eD0_t-31" style="edgeStyle=orthogonalEdgeStyle;rounded=0;orthogonalLoop=1;jettySize=auto;html=1;exitX=1;exitY=0.41;exitDx=0;exitDy=0;exitPerimeter=0;entryX=0;entryY=0.25;entryDx=0;entryDy=0;strokeColor=#FF3333;" parent="1" source="NwmCdjqyYi1wKT4zTaLU-61" target="NwmCdjqyYi1wKT4zTaLU-62" edge="1">
          <mxGeometry relative="1" as="geometry">
            <Array as="points">
              <mxPoint x="788" y="266" />
              <mxPoint x="788" y="347" />
              <mxPoint x="677" y="347" />
              <mxPoint x="677" y="417" />
              <mxPoint x="697" y="417" />
            </Array>
          </mxGeometry>
        </mxCell>
        <mxCell id="6gnXWZiP712-ZntQqO50-20" style="edgeStyle=orthogonalEdgeStyle;rounded=0;orthogonalLoop=1;jettySize=auto;html=1;exitX=1;exitY=0.75;exitDx=0;exitDy=0;exitPerimeter=0;entryX=0.25;entryY=1;entryDx=0;entryDy=0;entryPerimeter=0;strokeColor=#FF0000;jumpStyle=arc;" edge="1" parent="1" source="kFjChgy5pi1Nco4eD0_t-23" target="NwmCdjqyYi1wKT4zTaLU-81">
          <mxGeometry relative="1" as="geometry" />
        </mxCell>
        <mxCell id="6gnXWZiP712-ZntQqO50-101" value="" style="group" vertex="1" connectable="0" parent="1">
          <mxGeometry x="1986" y="540" width="92" height="199.1259" as="geometry" />
        </mxCell>
        <mxCell id="6gnXWZiP712-ZntQqO50-75" value="LS-X1" style="rounded=0;whiteSpace=wrap;html=1;fillColor=#008a00;points=[[0,0,0,0,0],[0,0.26,0,0,0],[0,0.64,0,0,0],[0,1,0,0,0],[0.34,0,0,0,0],[0.34,1,0,0,0],[0.67,0,0,0,0],[0.67,1,0,0,0],[1,0,0,0,0],[1,0.26,0,0,0],[1,0.64,0,0,0],[1,1,0,0,0]];fontColor=#ffffff;strokeColor=#005700;" vertex="1" parent="6gnXWZiP712-ZntQqO50-101">
          <mxGeometry width="92" height="43.306999999999995" as="geometry" />
        </mxCell>
        <mxCell id="6gnXWZiP712-ZntQqO50-76" value="LS-X2" style="rounded=0;whiteSpace=wrap;html=1;fillColor=#008a00;points=[[0,0,0,0,0],[0,0.35,0,0,0],[0,0.69,0,0,0],[0,1,0,0,0],[0.34,0,0,0,0],[0.34,1,0,0,0],[0.67,0,0,0,0],[0.67,1,0,0,0],[1,0,0,0,0],[1,0.35,0,0,0],[1,0.69,0,0,0],[1,1,0,0,0]];fontColor=#ffffff;strokeColor=#005700;" vertex="1" parent="6gnXWZiP712-ZntQqO50-101">
          <mxGeometry y="52" width="92" height="43.306999999999995" as="geometry" />
        </mxCell>
        <mxCell id="6gnXWZiP712-ZntQqO50-78" value="LS-Y" style="rounded=0;whiteSpace=wrap;html=1;fillColor=#008a00;points=[[0,0,0,0,0],[0,1,0,0,0],[0.14,1,0,0,0],[0.3,1,0,0,0],[0.34,0,0,0,0],[0.46,1,0,0,0],[0.62,1,0,0,0],[0.67,0,0,0,0],[0.75,1,0,0,0],[0.87,1,0,0,0],[1,0,0,0,0],[1,1,0,0,0]];fontColor=#ffffff;strokeColor=#005700;" vertex="1" parent="6gnXWZiP712-ZntQqO50-101">
          <mxGeometry y="104" width="92" height="44.09439999999999" as="geometry" />
        </mxCell>
        <mxCell id="6gnXWZiP712-ZntQqO50-79" value="LS-Z" style="rounded=0;whiteSpace=wrap;html=1;fillColor=#008a00;points=[[0,0,0,0,0],[0,1,0,0,0],[0.14,1,0,0,0],[0.3,1,0,0,0],[0.34,0,0,0,0],[0.46,1,0,0,0],[0.62,1,0,0,0],[0.67,0,0,0,0],[0.75,1,0,0,0],[0.87,1,0,0,0],[1,0,0,0,0],[1,1,0,0,0]];fontColor=#ffffff;strokeColor=#005700;" vertex="1" parent="6gnXWZiP712-ZntQqO50-101">
          <mxGeometry y="157" width="92" height="42.125899999999994" as="geometry" />
        </mxCell>
        <mxCell id="6gnXWZiP712-ZntQqO50-117" style="edgeStyle=orthogonalEdgeStyle;rounded=0;orthogonalLoop=1;jettySize=auto;html=1;exitX=1;exitY=0.25;exitDx=0;exitDy=0;exitPerimeter=0;entryX=0;entryY=0.25;entryDx=0;entryDy=0;" edge="1" parent="1" source="6gnXWZiP712-ZntQqO50-104" target="6gnXWZiP712-ZntQqO50-107">
          <mxGeometry relative="1" as="geometry" />
        </mxCell>
        <mxCell id="6gnXWZiP712-ZntQqO50-118" style="edgeStyle=orthogonalEdgeStyle;rounded=0;orthogonalLoop=1;jettySize=auto;html=1;exitX=1;exitY=0.5;exitDx=0;exitDy=0;exitPerimeter=0;entryX=0;entryY=0.75;entryDx=0;entryDy=0;" edge="1" parent="1" source="6gnXWZiP712-ZntQqO50-104" target="6gnXWZiP712-ZntQqO50-107">
          <mxGeometry relative="1" as="geometry">
            <Array as="points">
              <mxPoint x="2105" y="279" />
              <mxPoint x="2105" y="213" />
            </Array>
          </mxGeometry>
        </mxCell>
        <mxCell id="6gnXWZiP712-ZntQqO50-104" value="8 CHANNEL RELAY MODULE" style="rounded=0;whiteSpace=wrap;html=1;fillColor=#a0522d;fontColor=#ffffff;strokeColor=#6D1F00;textDirection=vertical-rl;points=[[0,0,0,0,0],[0,0.13,0,0,0],[0,0.25,0,0,0],[0,0.37,0,0,0],[0,0.5,0,0,0],[0,0.63,0,0,0],[0,0.75,0,0,0],[0,0.87,0,0,0],[0,1,0,0,0],[0.25,0,0,0,0],[0.25,1,0,0,0],[0.5,0,0,0,0],[0.5,1,0,0,0],[0.75,0,0,0,0],[0.75,1,0,0,0],[1,0,0,0,0],[1,0.25,0,0,0],[1,0.5,0,0,0],[1,0.75,0,0,0],[1,1,0,0,0]];" vertex="1" parent="1">
          <mxGeometry x="1884" y="169" width="111" height="220" as="geometry" />
        </mxCell>
        <mxCell id="6gnXWZiP712-ZntQqO50-105" style="edgeStyle=orthogonalEdgeStyle;rounded=0;orthogonalLoop=1;jettySize=auto;html=1;exitX=1;exitY=0.5;exitDx=0;exitDy=0;exitPerimeter=0;entryX=0.25;entryY=1;entryDx=0;entryDy=0;jumpStyle=arc;strokeColor=#FF0000;" edge="1" parent="1" source="kFjChgy5pi1Nco4eD0_t-13" target="6gnXWZiP712-ZntQqO50-104">
          <mxGeometry relative="1" as="geometry">
            <Array as="points">
              <mxPoint x="1029" y="261" />
              <mxPoint x="1029" y="461" />
              <mxPoint x="1918" y="461" />
            </Array>
          </mxGeometry>
        </mxCell>
        <mxCell id="6gnXWZiP712-ZntQqO50-106" style="edgeStyle=orthogonalEdgeStyle;rounded=0;orthogonalLoop=1;jettySize=auto;html=1;exitX=1;exitY=0.75;exitDx=0;exitDy=0;exitPerimeter=0;entryX=0.75;entryY=1;entryDx=0;entryDy=0;jumpStyle=arc;" edge="1" parent="1" source="NwmCdjqyYi1wKT4zTaLU-40" target="6gnXWZiP712-ZntQqO50-104">
          <mxGeometry relative="1" as="geometry">
            <Array as="points">
              <mxPoint x="1002" y="420" />
              <mxPoint x="1002" y="498" />
              <mxPoint x="1973" y="498" />
            </Array>
          </mxGeometry>
        </mxCell>
        <mxCell id="6gnXWZiP712-ZntQqO50-107" value="Coolant Valve" style="rounded=0;whiteSpace=wrap;html=1;" vertex="1" parent="1">
          <mxGeometry x="2162" y="168" width="95" height="60" as="geometry" />
        </mxCell>
        <mxCell id="6gnXWZiP712-ZntQqO50-110" style="edgeStyle=orthogonalEdgeStyle;rounded=0;orthogonalLoop=1;jettySize=auto;html=1;exitX=0;exitY=0.13;exitDx=0;exitDy=0;exitPerimeter=0;entryX=0.838;entryY=0.994;entryDx=0;entryDy=0;entryPerimeter=0;" edge="1" parent="1" source="6gnXWZiP712-ZntQqO50-104" target="NwmCdjqyYi1wKT4zTaLU-60">
          <mxGeometry relative="1" as="geometry" />
        </mxCell>
        <mxCell id="6gnXWZiP712-ZntQqO50-111" style="edgeStyle=orthogonalEdgeStyle;rounded=0;orthogonalLoop=1;jettySize=auto;html=1;exitX=0;exitY=0.25;exitDx=0;exitDy=0;exitPerimeter=0;entryX=0.714;entryY=0.996;entryDx=0;entryDy=0;entryPerimeter=0;strokeColor=#FFB366;" edge="1" parent="1" source="6gnXWZiP712-ZntQqO50-104" target="NwmCdjqyYi1wKT4zTaLU-60">
          <mxGeometry relative="1" as="geometry" />
        </mxCell>
        <mxCell id="6gnXWZiP712-ZntQqO50-112" style="edgeStyle=orthogonalEdgeStyle;rounded=0;orthogonalLoop=1;jettySize=auto;html=1;exitX=0;exitY=0.37;exitDx=0;exitDy=0;exitPerimeter=0;entryX=0.591;entryY=1;entryDx=0;entryDy=0;entryPerimeter=0;strokeColor=#FFB366;" edge="1" parent="1" source="6gnXWZiP712-ZntQqO50-104" target="NwmCdjqyYi1wKT4zTaLU-60">
          <mxGeometry relative="1" as="geometry" />
        </mxCell>
        <mxCell id="6gnXWZiP712-ZntQqO50-113" style="edgeStyle=orthogonalEdgeStyle;rounded=0;orthogonalLoop=1;jettySize=auto;html=1;exitX=0;exitY=0.5;exitDx=0;exitDy=0;exitPerimeter=0;entryX=0.457;entryY=0.998;entryDx=0;entryDy=0;entryPerimeter=0;strokeColor=#FFB366;" edge="1" parent="1" source="6gnXWZiP712-ZntQqO50-104" target="NwmCdjqyYi1wKT4zTaLU-60">
          <mxGeometry relative="1" as="geometry" />
        </mxCell>
        <mxCell id="6gnXWZiP712-ZntQqO50-114" style="edgeStyle=orthogonalEdgeStyle;rounded=0;orthogonalLoop=1;jettySize=auto;html=1;exitX=0;exitY=0.63;exitDx=0;exitDy=0;exitPerimeter=0;entryX=0.342;entryY=1;entryDx=0;entryDy=0;entryPerimeter=0;strokeColor=#FFB366;" edge="1" parent="1" source="6gnXWZiP712-ZntQqO50-104" target="NwmCdjqyYi1wKT4zTaLU-60">
          <mxGeometry relative="1" as="geometry" />
        </mxCell>
        <mxCell id="6gnXWZiP712-ZntQqO50-115" style="edgeStyle=orthogonalEdgeStyle;rounded=0;orthogonalLoop=1;jettySize=auto;html=1;exitX=0;exitY=0.75;exitDx=0;exitDy=0;exitPerimeter=0;entryX=0.25;entryY=1;entryDx=0;entryDy=0;entryPerimeter=0;strokeColor=#FFB366;" edge="1" parent="1" source="6gnXWZiP712-ZntQqO50-104" target="NwmCdjqyYi1wKT4zTaLU-60">
          <mxGeometry relative="1" as="geometry">
            <Array as="points">
              <mxPoint x="1777" y="334" />
            </Array>
          </mxGeometry>
        </mxCell>
        <mxCell id="6gnXWZiP712-ZntQqO50-116" style="edgeStyle=orthogonalEdgeStyle;rounded=0;orthogonalLoop=1;jettySize=auto;html=1;exitX=0;exitY=0.87;exitDx=0;exitDy=0;exitPerimeter=0;entryX=0.087;entryY=1.001;entryDx=0;entryDy=0;entryPerimeter=0;strokeColor=#FFB366;" edge="1" parent="1" source="6gnXWZiP712-ZntQqO50-104" target="NwmCdjqyYi1wKT4zTaLU-60">
          <mxGeometry relative="1" as="geometry" />
        </mxCell>
      </root>
    </mxGraphModel>
  </diagram>
</mxfile>
